<?xml version="1.0" encoding="UTF-8"?><svg id="Layer_1" xmlns="http://www.w3.org/2000/svg" viewBox="0 0 400 400"><g transform="translate(-2.5183632850461217, -1.1542498181313972) scale(1.0493179937397332)"><path d="M188.9,246.46l118.41-68.89v-14.86l-118.41,68.89-17.78-10.13h0l-65.06-37.6v-17.33l82.62,47.73,118.41-68.89-96.13-55.38-118.19,68.66h0v31.97h0v31.97h0v31.97h0l71.81,41.42h0l24.54,14.18,118.19-68.66v-14.86l-118.41,68.66-17.78-10.13h0l-65.06-37.6v-17.11l58.31,33.54h0l24.54,14.18,118.19-68.66v-14.86l-118.19,68.89-17.78-10.13h0l-65.06-37.6v-17.11l58.31,33.54h0l24.54,14.18Zm14.41-133.27l63.71,36.92-12.38,7.2-63.93-36.92,12.61-7.2Zm-22.74,13.28l63.71,36.92-12.61,7.2-63.71-36.92,12.61-7.2Z"/></g></svg>